<mxfile host="app.diagrams.net" modified="2023-04-27T12:01:12.127Z" agent="Mozilla/5.0 (Windows NT 10.0; Win64; x64) AppleWebKit/537.36 (KHTML, like Gecko) Chrome/112.0.0.0 Safari/537.36" etag="sajVhuS86wrkdUEwgHv5" version="21.2.3" type="device">
  <diagram name="Side-1" id="jYuk8-oOp3R7sOs5Zvfv">
    <mxGraphModel dx="1434" dy="756" grid="1" gridSize="10" guides="1" tooltips="1" connect="1" arrows="1" fold="1" page="1" pageScale="1" pageWidth="827" pageHeight="1169" math="0" shadow="0">
      <root>
        <mxCell id="0" />
        <mxCell id="1" parent="0" />
        <mxCell id="RHQnJ_j3a1nPTwTpxCD9-8" style="rounded=0;orthogonalLoop=1;jettySize=auto;html=1;entryX=0;entryY=0.046;entryDx=0;entryDy=0;entryPerimeter=0;exitX=1;exitY=0.338;exitDx=0;exitDy=0;exitPerimeter=0;" edge="1" parent="1" source="RHQnJ_j3a1nPTwTpxCD9-4" target="RHQnJ_j3a1nPTwTpxCD9-7">
          <mxGeometry relative="1" as="geometry" />
        </mxCell>
        <mxCell id="RHQnJ_j3a1nPTwTpxCD9-9" value="activate_pump" style="edgeLabel;html=1;align=center;verticalAlign=middle;resizable=0;points=[];" vertex="1" connectable="0" parent="RHQnJ_j3a1nPTwTpxCD9-8">
          <mxGeometry x="-0.1471" y="-3" relative="1" as="geometry">
            <mxPoint x="15" y="-21" as="offset" />
          </mxGeometry>
        </mxCell>
        <mxCell id="RHQnJ_j3a1nPTwTpxCD9-4" value="Water_pump_control.sh&lt;br&gt;" style="rounded=1;whiteSpace=wrap;html=1;" vertex="1" parent="1">
          <mxGeometry x="150" y="200" width="150" height="80" as="geometry" />
        </mxCell>
        <mxCell id="RHQnJ_j3a1nPTwTpxCD9-18" style="edgeStyle=orthogonalEdgeStyle;rounded=0;orthogonalLoop=1;jettySize=auto;html=1;exitX=1;exitY=0.25;exitDx=0;exitDy=0;" edge="1" parent="1" source="RHQnJ_j3a1nPTwTpxCD9-5" target="RHQnJ_j3a1nPTwTpxCD9-7">
          <mxGeometry relative="1" as="geometry">
            <Array as="points">
              <mxPoint x="470" y="365" />
              <mxPoint x="470" y="365" />
            </Array>
          </mxGeometry>
        </mxCell>
        <mxCell id="RHQnJ_j3a1nPTwTpxCD9-20" style="edgeStyle=orthogonalEdgeStyle;rounded=0;orthogonalLoop=1;jettySize=auto;html=1;exitX=1;exitY=0.75;exitDx=0;exitDy=0;" edge="1" parent="1" source="RHQnJ_j3a1nPTwTpxCD9-5" target="RHQnJ_j3a1nPTwTpxCD9-7">
          <mxGeometry relative="1" as="geometry">
            <Array as="points">
              <mxPoint x="300" y="390" />
            </Array>
          </mxGeometry>
        </mxCell>
        <mxCell id="RHQnJ_j3a1nPTwTpxCD9-26" style="rounded=0;orthogonalLoop=1;jettySize=auto;html=1;exitX=0.913;exitY=0.983;exitDx=0;exitDy=0;entryX=-0.04;entryY=0.432;entryDx=0;entryDy=0;entryPerimeter=0;exitPerimeter=0;" edge="1" parent="1" source="RHQnJ_j3a1nPTwTpxCD9-5" target="RHQnJ_j3a1nPTwTpxCD9-7">
          <mxGeometry relative="1" as="geometry" />
        </mxCell>
        <mxCell id="RHQnJ_j3a1nPTwTpxCD9-27" style="rounded=0;orthogonalLoop=1;jettySize=auto;html=1;exitX=1;exitY=0.75;exitDx=0;exitDy=0;entryX=-0.04;entryY=0.385;entryDx=0;entryDy=0;entryPerimeter=0;" edge="1" parent="1" source="RHQnJ_j3a1nPTwTpxCD9-5" target="RHQnJ_j3a1nPTwTpxCD9-7">
          <mxGeometry relative="1" as="geometry" />
        </mxCell>
        <mxCell id="RHQnJ_j3a1nPTwTpxCD9-5" value="pico_publish_data.sh" style="rounded=1;whiteSpace=wrap;html=1;" vertex="1" parent="1">
          <mxGeometry x="150" y="340" width="150" height="120" as="geometry" />
        </mxCell>
        <mxCell id="RHQnJ_j3a1nPTwTpxCD9-39" style="rounded=0;orthogonalLoop=1;jettySize=auto;html=1;exitX=1;exitY=0.75;exitDx=0;exitDy=0;entryX=0;entryY=0.664;entryDx=0;entryDy=0;entryPerimeter=0;" edge="1" parent="1" source="RHQnJ_j3a1nPTwTpxCD9-6" target="RHQnJ_j3a1nPTwTpxCD9-7">
          <mxGeometry relative="1" as="geometry" />
        </mxCell>
        <mxCell id="RHQnJ_j3a1nPTwTpxCD9-6" value="farmControl.sh&lt;br&gt;(Wireless controller)" style="rounded=1;whiteSpace=wrap;html=1;" vertex="1" parent="1">
          <mxGeometry x="150" y="490" width="150" height="140" as="geometry" />
        </mxCell>
        <mxCell id="RHQnJ_j3a1nPTwTpxCD9-10" style="rounded=0;orthogonalLoop=1;jettySize=auto;html=1;entryX=1;entryY=0.75;entryDx=0;entryDy=0;exitX=-0.03;exitY=0.1;exitDx=0;exitDy=0;exitPerimeter=0;" edge="1" parent="1" source="RHQnJ_j3a1nPTwTpxCD9-7" target="RHQnJ_j3a1nPTwTpxCD9-4">
          <mxGeometry relative="1" as="geometry">
            <mxPoint x="520" y="240" as="sourcePoint" />
          </mxGeometry>
        </mxCell>
        <mxCell id="RHQnJ_j3a1nPTwTpxCD9-41" value="pump_alarm" style="edgeLabel;html=1;align=center;verticalAlign=middle;resizable=0;points=[];" vertex="1" connectable="0" parent="RHQnJ_j3a1nPTwTpxCD9-10">
          <mxGeometry x="-0.1909" relative="1" as="geometry">
            <mxPoint x="-21" y="-11" as="offset" />
          </mxGeometry>
        </mxCell>
        <mxCell id="RHQnJ_j3a1nPTwTpxCD9-32" style="rounded=0;orthogonalLoop=1;jettySize=auto;html=1;exitX=-0.01;exitY=0.519;exitDx=0;exitDy=0;exitPerimeter=0;" edge="1" parent="1" source="RHQnJ_j3a1nPTwTpxCD9-7">
          <mxGeometry relative="1" as="geometry">
            <mxPoint x="300" y="508" as="targetPoint" />
          </mxGeometry>
        </mxCell>
        <mxCell id="RHQnJ_j3a1nPTwTpxCD9-33" style="rounded=0;orthogonalLoop=1;jettySize=auto;html=1;exitX=-0.05;exitY=0.568;exitDx=0;exitDy=0;entryX=0.993;entryY=0.321;entryDx=0;entryDy=0;exitPerimeter=0;entryPerimeter=0;" edge="1" parent="1" source="RHQnJ_j3a1nPTwTpxCD9-7" target="RHQnJ_j3a1nPTwTpxCD9-6">
          <mxGeometry relative="1" as="geometry" />
        </mxCell>
        <mxCell id="RHQnJ_j3a1nPTwTpxCD9-36" style="rounded=0;orthogonalLoop=1;jettySize=auto;html=1;entryX=1;entryY=0.5;entryDx=0;entryDy=0;exitX=-0.01;exitY=0.607;exitDx=0;exitDy=0;exitPerimeter=0;" edge="1" parent="1" source="RHQnJ_j3a1nPTwTpxCD9-7" target="RHQnJ_j3a1nPTwTpxCD9-6">
          <mxGeometry relative="1" as="geometry">
            <mxPoint x="510" y="550" as="sourcePoint" />
          </mxGeometry>
        </mxCell>
        <mxCell id="RHQnJ_j3a1nPTwTpxCD9-45" style="rounded=0;orthogonalLoop=1;jettySize=auto;html=1;exitX=-0.02;exitY=0.859;exitDx=0;exitDy=0;entryX=1;entryY=0.25;entryDx=0;entryDy=0;exitPerimeter=0;" edge="1" parent="1" source="RHQnJ_j3a1nPTwTpxCD9-7" target="RHQnJ_j3a1nPTwTpxCD9-42">
          <mxGeometry relative="1" as="geometry" />
        </mxCell>
        <mxCell id="RHQnJ_j3a1nPTwTpxCD9-49" value="Moisture" style="edgeLabel;html=1;align=center;verticalAlign=middle;resizable=0;points=[];" vertex="1" connectable="0" parent="RHQnJ_j3a1nPTwTpxCD9-45">
          <mxGeometry x="0.2017" y="-3" relative="1" as="geometry">
            <mxPoint x="23" y="-8" as="offset" />
          </mxGeometry>
        </mxCell>
        <mxCell id="RHQnJ_j3a1nPTwTpxCD9-46" style="rounded=0;orthogonalLoop=1;jettySize=auto;html=1;exitX=0.01;exitY=0.905;exitDx=0;exitDy=0;entryX=1;entryY=0.5;entryDx=0;entryDy=0;exitPerimeter=0;" edge="1" parent="1" source="RHQnJ_j3a1nPTwTpxCD9-7" target="RHQnJ_j3a1nPTwTpxCD9-42">
          <mxGeometry relative="1" as="geometry" />
        </mxCell>
        <mxCell id="RHQnJ_j3a1nPTwTpxCD9-50" value="plant_water_pump" style="edgeLabel;html=1;align=center;verticalAlign=middle;resizable=0;points=[];" vertex="1" connectable="0" parent="RHQnJ_j3a1nPTwTpxCD9-46">
          <mxGeometry x="-0.1429" relative="1" as="geometry">
            <mxPoint x="-18" y="-10" as="offset" />
          </mxGeometry>
        </mxCell>
        <mxCell id="RHQnJ_j3a1nPTwTpxCD9-47" style="rounded=0;orthogonalLoop=1;jettySize=auto;html=1;exitX=0;exitY=0.953;exitDx=0;exitDy=0;entryX=1;entryY=0.75;entryDx=0;entryDy=0;exitPerimeter=0;" edge="1" parent="1" source="RHQnJ_j3a1nPTwTpxCD9-7" target="RHQnJ_j3a1nPTwTpxCD9-42">
          <mxGeometry relative="1" as="geometry" />
        </mxCell>
        <mxCell id="RHQnJ_j3a1nPTwTpxCD9-7" value="Mosquitto&lt;br&gt;(MQTT)" style="whiteSpace=wrap;html=1;" vertex="1" parent="1">
          <mxGeometry x="530" y="200" width="100" height="590" as="geometry" />
        </mxCell>
        <mxCell id="RHQnJ_j3a1nPTwTpxCD9-14" value="ambient_light" style="edgeLabel;html=1;align=center;verticalAlign=middle;resizable=0;points=[];" vertex="1" connectable="0" parent="1">
          <mxGeometry x="470" y="380" as="geometry">
            <mxPoint x="-79" y="-30" as="offset" />
          </mxGeometry>
        </mxCell>
        <mxCell id="RHQnJ_j3a1nPTwTpxCD9-23" value="moisture" style="edgeLabel;html=1;align=center;verticalAlign=middle;resizable=0;points=[];" vertex="1" connectable="0" parent="1">
          <mxGeometry x="470" y="410" as="geometry">
            <mxPoint x="-79" y="-30" as="offset" />
          </mxGeometry>
        </mxCell>
        <mxCell id="RHQnJ_j3a1nPTwTpxCD9-25" value="plant_water_alarm" style="edgeLabel;html=1;align=center;verticalAlign=middle;resizable=0;points=[];" vertex="1" connectable="0" parent="1">
          <mxGeometry x="480" y="443" as="geometry">
            <mxPoint x="-79" y="-30" as="offset" />
          </mxGeometry>
        </mxCell>
        <mxCell id="RHQnJ_j3a1nPTwTpxCD9-28" value="pump_water_alarm" style="edgeLabel;html=1;align=center;verticalAlign=middle;resizable=0;points=[];" vertex="1" connectable="0" parent="1">
          <mxGeometry x="480" y="477" as="geometry">
            <mxPoint x="-79" y="-30" as="offset" />
          </mxGeometry>
        </mxCell>
        <mxCell id="RHQnJ_j3a1nPTwTpxCD9-31" value="pump_water_alarm" style="edgeLabel;html=1;align=center;verticalAlign=middle;resizable=0;points=[];" vertex="1" connectable="0" parent="1">
          <mxGeometry x="488" y="525" as="geometry">
            <mxPoint x="-79" y="-30" as="offset" />
          </mxGeometry>
        </mxCell>
        <mxCell id="RHQnJ_j3a1nPTwTpxCD9-34" value="plant_water_alarm" style="edgeLabel;html=1;align=center;verticalAlign=middle;resizable=0;points=[];" vertex="1" connectable="0" parent="1">
          <mxGeometry x="490" y="550" as="geometry">
            <mxPoint x="-79" y="-30" as="offset" />
          </mxGeometry>
        </mxCell>
        <mxCell id="RHQnJ_j3a1nPTwTpxCD9-35" value="moisture" style="edgeLabel;html=1;align=center;verticalAlign=middle;resizable=0;points=[];" vertex="1" connectable="0" parent="1">
          <mxGeometry x="480" y="580" as="geometry">
            <mxPoint x="-79" y="-30" as="offset" />
          </mxGeometry>
        </mxCell>
        <mxCell id="RHQnJ_j3a1nPTwTpxCD9-40" value="run_pump" style="edgeLabel;html=1;align=center;verticalAlign=middle;resizable=0;points=[];" vertex="1" connectable="0" parent="1">
          <mxGeometry x="480" y="610" as="geometry">
            <mxPoint x="-79" y="-30" as="offset" />
          </mxGeometry>
        </mxCell>
        <mxCell id="RHQnJ_j3a1nPTwTpxCD9-42" value="Webserver" style="rounded=1;whiteSpace=wrap;html=1;" vertex="1" parent="1">
          <mxGeometry x="150" y="680" width="150" height="110" as="geometry" />
        </mxCell>
      </root>
    </mxGraphModel>
  </diagram>
</mxfile>
